<?xml version="1.0" standalone="no"?>
<!DOCTYPE svg PUBLIC "-//W3C//DTD SVG 20010904//EN"
 "http://www.w3.org/TR/2001/REC-SVG-20010904/DTD/svg10.dtd">
<svg version="1.0" xmlns="http://www.w3.org/2000/svg"
 width="1170.000000pt" height="1170.000000pt" viewBox="0 0 1170.000000 1170.000000"
 preserveAspectRatio="xMidYMid meet">
<metadata>
Created by potrace 1.11, written by Peter Selinger 2001-2013
</metadata>
<g transform="translate(0.000000,1170.000000) scale(0.100000,-0.100000)"
fill="#000000" stroke="none">
<path d="M2050 9209 c-63 -49 -125 -98 -138 -108 l-22 -18 66 -84 c36 -46 78
-99 92 -118 15 -18 31 -40 35 -47 4 -8 11 -14 15 -14 15 0 282 208 282 220 0
5 -4 10 -8 12 -4 2 -37 41 -72 88 -36 47 -71 91 -78 99 -7 8 -20 24 -29 37 -8
13 -18 24 -22 24 -3 -1 -58 -41 -121 -91z"/>
<path d="M2820 9002 c-19 -16 -75 -60 -125 -97 -49 -38 -94 -73 -100 -77 -5
-5 -48 -38 -95 -75 -47 -36 -84 -70 -82 -76 3 -9 152 -206 177 -233 5 -6 17
-22 25 -34 8 -12 22 -30 31 -40 8 -10 24 -31 35 -45 10 -15 24 -32 29 -39 6
-6 21 -26 34 -43 12 -18 27 -33 33 -33 5 0 61 39 123 88 62 48 127 98 145 112
18 14 68 52 111 86 87 68 86 60 20 140 -14 17 -35 44 -46 59 -11 16 -40 54
-65 85 -25 31 -56 72 -70 90 -14 18 -36 47 -50 65 -14 18 -36 46 -49 63 -29
39 -37 39 -81 4z"/>
<path d="M3611 8843 c-1 -7 -6 -13 -12 -13 -6 0 -23 -10 -38 -22 -15 -13 -42
-34 -61 -48 -79 -60 -77 -54 -39 -105 19 -26 44 -57 57 -71 13 -13 20 -24 17
-24 -4 0 0 -7 9 -15 8 -8 20 -15 26 -15 6 0 43 26 83 58 102 81 100 78 87 102
-6 11 -15 20 -20 20 -6 0 -10 7 -10 16 0 8 -4 12 -10 9 -5 -3 -10 0 -10 7 0 7
-11 26 -24 41 -13 16 -31 38 -40 50 -8 12 -15 16 -15 10z"/>
<path d="M1384 8701 c-16 -14 -69 -62 -119 -106 -49 -43 -90 -82 -90 -86 0 -7
73 -92 166 -193 l36 -40 25 25 c14 13 38 35 55 49 84 70 153 135 153 144 0 6
-12 25 -28 41 -15 17 -59 67 -98 111 l-71 82 -29 -27z"/>
<path d="M2060 8540 c-19 -16 -43 -36 -52 -44 -10 -9 -21 -17 -25 -18 -5 -1
-12 -6 -18 -10 -5 -5 -21 -17 -34 -28 -13 -11 -28 -20 -33 -20 -5 0 -7 -4 -3
-9 3 -5 -4 -13 -16 -16 -20 -7 -27 -12 -83 -63 -14 -12 -29 -23 -33 -24 -5 -1
-14 -7 -20 -14 -10 -10 -7 -19 17 -42 17 -17 30 -37 30 -44 0 -7 9 -20 20 -28
11 -8 20 -20 20 -27 0 -7 7 -13 16 -13 8 0 12 -5 9 -10 -3 -6 1 -13 9 -16 9
-3 16 -13 16 -20 0 -8 7 -17 15 -20 8 -4 15 -12 15 -20 0 -7 6 -17 13 -21 7
-4 24 -24 37 -43 13 -19 30 -41 38 -49 13 -14 12 -15 68 34 6 6 22 17 35 25
12 8 33 26 46 39 13 13 23 20 23 16 0 -5 12 5 26 21 15 16 23 23 18 15 -7 -13
90 61 145 110 20 19 21 23 7 31 -9 5 -16 15 -16 23 0 7 -12 23 -26 34 -15 12
-23 21 -18 21 5 0 0 7 -10 15 -11 8 -17 15 -12 15 4 0 -3 11 -16 24 -24 25
-42 49 -68 87 -8 12 -23 29 -32 38 -10 8 -18 20 -18 26 0 6 -9 17 -19 25 -11
7 -18 17 -15 22 12 19 -24 5 -56 -22z"/>
<path d="M4051 8530 c-4 -3 -7 -105 -6 -227 l0 -223 2190 -1 c2209 -1 2248 -1
2320 -13 144 -23 345 -112 431 -191 6 -5 26 -24 45 -40 47 -42 130 -140 167
-200 30 -48 79 -150 72 -150 -2 0 2 -10 8 -22 17 -30 41 -128 49 -193 9 -71 9
-2259 0 -2325 -3 -27 -9 -63 -12 -78 -5 -25 10 -43 171 -203 97 -96 180 -171
184 -167 23 25 75 191 105 339 15 72 19 307 18 1284 0 1001 -2 1153 -19 1260
-8 51 -50 210 -65 245 -6 17 -13 35 -14 41 -7 29 -92 187 -143 263 -49 74
-218 258 -277 301 -11 8 -39 30 -61 48 -23 17 -45 32 -49 32 -3 0 -25 13 -48
28 -85 57 -281 139 -380 157 -10 3 -26 6 -35 9 -15 4 -34 8 -127 23 -40 6
-4515 9 -4524 3z"/>
<path d="M2873 7982 c-111 -86 -205 -160 -208 -164 -6 -6 11 -48 25 -58 3 -3
19 -23 36 -45 16 -22 35 -46 41 -55 56 -68 183 -236 183 -241 0 -4 7 -10 15
-13 10 -3 41 14 83 47 37 28 72 55 77 60 83 63 122 94 134 105 8 7 26 21 40
30 14 9 35 25 46 34 11 10 28 23 38 30 18 13 15 48 -4 48 -5 0 -9 6 -9 14 0 8
-4 16 -8 18 -5 2 -31 32 -58 68 -136 177 -160 208 -188 243 -16 20 -32 37 -35
36 -3 0 -97 -71 -208 -157z"/>
<path d="M2264 7886 c-24 -24 -147 -131 -160 -139 -15 -8 -19 -43 -6 -49 4 -1
40 -40 79 -85 58 -66 75 -80 85 -70 8 7 47 41 88 77 41 36 80 70 87 76 9 9 6
19 -15 43 -15 17 -36 41 -47 54 -91 106 -95 110 -111 93z"/>
<path d="M1675 7788 c-46 -26 -451 -271 -458 -278 -7 -6 77 -152 211 -368 12
-20 30 -52 39 -70 11 -22 23 -32 33 -29 9 2 92 50 186 107 93 57 199 121 236
144 58 35 65 43 54 56 -14 17 -245 398 -261 430 -11 23 -13 23 -40 8z"/>
<path d="M3864 7699 c-43 -34 -91 -70 -106 -82 -28 -21 -37 -51 -19 -61 5 -4
36 -41 68 -83 32 -42 63 -84 69 -92 10 -12 16 -11 45 9 19 13 36 27 39 30 3 4
23 20 46 36 65 47 104 82 104 93 0 6 -19 35 -42 64 -24 29 -59 74 -78 99 -19
26 -38 48 -41 48 -3 0 -41 -27 -85 -61z"/>
<path d="M2538 7432 c-21 -13 -38 -29 -38 -33 0 -5 -6 -9 -14 -9 -8 0 -16 -3
-18 -7 -1 -5 -21 -21 -43 -38 -52 -39 -74 -56 -96 -77 -9 -9 -20 -14 -23 -10
-3 3 -6 0 -6 -6 0 -7 -4 -12 -10 -12 -5 0 -18 -8 -28 -17 -30 -29 -72 -63 -77
-63 -6 0 -49 -35 -83 -68 l-24 -23 26 -22 c14 -13 26 -26 26 -30 0 -7 54 -81
70 -97 3 -3 23 -29 45 -57 21 -29 43 -53 47 -53 4 0 7 -3 6 -8 -3 -8 71 -104
85 -110 4 -2 5 -8 1 -13 -3 -5 -1 -9 5 -9 6 0 18 -14 26 -31 12 -23 19 -28 29
-20 7 6 15 8 18 5 3 -3 15 7 27 22 11 15 21 23 21 18 0 -5 10 2 21 16 11 14
18 18 14 10 -4 -8 3 -4 14 9 12 13 21 20 21 16 0 -5 8 2 19 13 10 12 22 22 25
22 4 0 13 6 20 13 7 6 25 21 41 32 15 11 35 27 44 35 9 8 35 28 56 45 22 16
46 36 53 45 11 13 12 13 6 0 -4 -8 3 -5 17 7 13 13 35 32 49 44 16 14 21 23
13 26 -7 3 -13 9 -13 14 0 8 -20 35 -47 64 -7 8 -13 17 -13 22 0 5 -8 16 -17
25 -10 9 -23 23 -28 30 -6 7 -26 33 -44 58 -19 25 -41 51 -50 58 -8 6 -11 12
-5 12 5 0 4 4 -1 8 -6 4 -33 36 -60 72 -27 36 -52 67 -56 70 -3 3 -8 10 -10
16 -3 7 -18 2 -41 -14z"/>
<path d="M3330 7368 c-22 -20 -207 -162 -233 -179 -5 -4 35 -64 89 -135 55
-70 102 -132 106 -137 3 -6 20 1 40 17 44 35 44 35 113 86 33 25 70 54 84 65
55 46 55 42 4 108 -26 34 -52 67 -58 73 -5 6 -28 36 -50 67 -22 31 -47 56 -55
57 -8 0 -26 -10 -40 -22z"/>
<path d="M3960 7192 c0 -7 -5 -12 -11 -12 -7 0 -22 -11 -35 -26 -13 -14 -24
-21 -24 -17 -1 4 -9 -2 -19 -14 -10 -12 -21 -19 -25 -16 -3 3 -8 -2 -12 -11
-3 -9 -12 -16 -20 -16 -7 0 -20 -10 -28 -22 -9 -12 -16 -19 -16 -14 0 5 -8 -1
-19 -12 -10 -12 -23 -22 -29 -22 -6 0 -16 -9 -22 -21 -10 -17 -7 -24 14 -43
14 -12 26 -26 26 -31 0 -6 14 -25 31 -42 16 -18 27 -33 23 -33 -4 0 3 -9 16
-20 13 -11 19 -20 14 -20 -5 0 -1 -5 9 -11 9 -5 17 -17 17 -24 0 -8 7 -15 16
-15 8 0 12 -4 9 -10 -3 -5 -1 -10 5 -10 6 0 8 -5 4 -12 -4 -6 5 -3 19 8 15 10
27 22 27 27 0 4 6 7 13 7 6 0 30 16 52 35 61 53 63 55 74 55 6 0 18 11 27 25
9 14 20 25 26 25 5 0 18 9 29 19 l21 19 -21 11 c-12 7 -21 17 -21 24 0 7 -14
27 -31 45 -16 17 -26 32 -22 32 4 0 -5 11 -21 25 -16 14 -25 25 -20 25 5 0 4
4 -2 8 -6 4 -25 27 -42 51 -18 24 -32 39 -32 33z"/>
<path d="M1846 6411 c-6 -13 1 -1460 8 -1511 52 -408 268 -761 604 -987 197
-132 412 -208 649 -229 101 -9 5322 -10 5430 -1 45 4 88 9 95 12 7 2 27 6 43
8 30 5 147 34 175 45 8 3 19 4 23 3 4 0 10 5 13 13 4 10 -56 76 -174 193
l-179 178 -2689 -1 c-2862 0 -2756 -2 -2904 47 -351 117 -609 444 -635 806 -2
27 -4 359 -4 739 l-1 692 -225 -1 c-124 0 -227 -3 -229 -6z"/>
<path d="M7996 6093 c-71 -13 -86 -23 -86 -58 0 -22 2 -24 126 -93 49 -27 105
-58 124 -69 19 -11 110 -62 202 -113 95 -53 170 -101 173 -111 3 -10 2 -35 -4
-56 -6 -21 -12 -49 -15 -63 -3 -14 -12 -52 -20 -86 -8 -34 -17 -72 -20 -85 -2
-13 -12 -55 -21 -94 -9 -38 -19 -79 -21 -90 -17 -90 -30 -127 -44 -135 -17 -9
-80 -15 -360 -35 -36 -2 -101 -7 -145 -10 -44 -3 -85 -2 -91 2 -6 5 -48 71
-94 148 -45 77 -90 151 -99 165 -9 14 -18 30 -21 35 -3 6 -34 59 -70 118 -36
60 -71 119 -78 133 -7 13 -16 24 -20 25 -4 0 -14 2 -23 4 -8 1 -22 -3 -31 -9
-19 -14 -63 -134 -73 -201 -10 -63 -10 -206 -1 -265 12 -77 81 -260 98 -260 5
0 8 -5 8 -10 0 -16 39 -68 95 -128 157 -169 375 -263 615 -266 128 -1 186 5
285 33 l38 10 221 -219 c695 -689 1011 -1002 1094 -1082 97 -93 167 -135 274
-164 68 -18 200 -12 256 11 55 23 116 92 133 152 27 96 8 234 -42 318 -11 17
-23 39 -28 50 -7 16 -447 455 -1318 1315 l-75 74 21 71 c78 254 50 474 -87
685 -37 56 -187 210 -205 210 -6 0 -18 6 -26 14 -42 36 -175 95 -261 114 -25
6 -58 14 -75 18 -54 12 -238 11 -309 -3z"/>
<path d="M5037 3312 c-2 -4 -3 -123 -3 -265 1 -142 -1 -262 -4 -266 -3 -4
-252 -7 -555 -7 -509 0 -552 -1 -577 -18 -57 -37 -62 -57 -64 -226 -1 -176 8
-217 59 -249 32 -20 44 -21 1975 -21 1800 0 1946 1 1979 17 59 27 69 65 67
244 -1 188 -13 222 -84 244 -14 5 -289 8 -612 8 l-588 0 -1 176 c0 97 -1 219
-2 271 l-2 95 -793 2 c-435 0 -794 -2 -795 -5z"/>
</g>
</svg>
